<?xml version="1.0" standalone="no"?>
<!DOCTYPE svg PUBLIC "-//W3C//DTD SVG 20010904//EN"
 "http://www.w3.org/TR/2001/REC-SVG-20010904/DTD/svg10.dtd">
<svg version="1.0" xmlns="http://www.w3.org/2000/svg"
 width="512.000000pt" height="512.000000pt" viewBox="0 0 512.000000 512.000000"
 preserveAspectRatio="xMidYMid meet">

<g transform="translate(0.000000,512.000000) scale(0.100000,-0.100000)"
fill="#000000" stroke="none">
<path d="M537 4074 c-32 -110 -39 -406 -14 -550 60 -338 245 -628 537 -845 54
-41 97 -75 95 -77 -5 -5 -175 43 -314 88 -166 55 -346 128 -507 205 l-133 63
26 -71 c66 -183 179 -371 301 -499 219 -229 482 -337 826 -339 l131 0 -90 -46
c-178 -91 -515 -221 -683 -263 -23 -6 -40 -15 -37 -20 9 -14 147 -87 236 -124
408 -168 802 -99 1098 193 43 42 91 94 108 117 l32 40 -76 54 c-238 171 -442
501 -538 870 -14 55 -22 65 -151 192 -287 281 -551 597 -754 903 -88 133 -87
132 -93 109z"/>
<path d="M4515 4012 c-117 -179 -329 -456 -489 -637 -43 -49 -159 -171 -257
-270 l-177 -180 -22 -80 c-78 -285 -216 -539 -390 -718 -49 -51 -116 -110
-149 -132 -33 -22 -61 -44 -61 -50 0 -18 116 -146 186 -206 252 -213 559 -283
879 -198 103 27 244 85 341 140 l76 44 -33 9 c-192 51 -529 180 -714 273 l-79
40 174 6 c131 3 194 10 250 25 203 54 355 138 493 271 138 133 237 281 316
471 64 156 67 148 -38 96 -125 -63 -344 -156 -482 -204 -126 -44 -378 -116
-384 -110 -2 2 36 32 85 67 111 78 278 250 353 363 143 215 210 439 211 713 1
131 -19 330 -33 339 -4 3 -29 -30 -56 -72z"/>
<path d="M2445 3834 c-418 -31 -704 -145 -777 -312 -25 -56 -26 -164 -2 -335
70 -511 312 -939 625 -1101 52 -27 95 -50 96 -50 1 -1 -13 -65 -32 -141 -89
-368 -195 -557 -395 -702 -154 -112 -173 -164 -83 -221 137 -87 503 -153 763
-137 341 21 630 120 630 215 0 31 -55 94 -141 162 -195 155 -292 338 -382 724
l-24 101 82 40 c146 73 263 182 373 351 166 254 278 631 285 959 2 92 0 101
-28 152 -92 167 -404 280 -810 294 -71 2 -152 3 -180 1z m410 -208 c184 -31
325 -85 393 -149 40 -39 40 -61 0 -99 -64 -60 -188 -108 -373 -145 -129 -25
-511 -25 -640 0 -183 37 -316 89 -374 148 -37 37 -38 49 -7 87 64 75 268 145
501 172 109 12 390 4 500 -14z"/>
</g>
</svg>
