<?xml version="1.0" standalone="no"?>
<!DOCTYPE svg PUBLIC "-//W3C//DTD SVG 20010904//EN"
 "http://www.w3.org/TR/2001/REC-SVG-20010904/DTD/svg10.dtd">
<svg version="1.0" xmlns="http://www.w3.org/2000/svg"
 width="250.000000pt" height="250.000000pt" viewBox="0 0 250.000000 250.000000"
 preserveAspectRatio="xMidYMid meet">

<g transform="translate(0.000000,250.000000) scale(0.100000,-0.100000)"
fill="#000000" stroke="none">
<path d="M600 2235 c0 -8 12 -49 26 -91 23 -70 26 -99 35 -328 5 -137 6 -253
1 -257 -9 -8 -265 -54 -389 -70 -97 -12 -109 -21 -74 -53 35 -32 118 -36 268
-15 75 10 141 19 145 19 13 0 -51 -170 -103 -273 -85 -171 -199 -334 -326
-469 -66 -70 -89 -108 -64 -108 5 0 50 27 100 61 154 102 282 243 392 432 22
37 41 67 42 67 3 0 2 -11 -18 -266 -8 -104 -26 -257 -40 -339 -23 -140 -24
-152 -10 -212 25 -107 66 -169 103 -156 18 7 48 70 61 131 7 34 11 195 11 452
0 219 4 401 9 404 4 3 30 -22 57 -57 90 -114 114 -137 145 -137 39 0 65 50 55
106 -11 56 -52 88 -161 124 l-95 32 0 117 0 118 118 22 c168 33 199 49 174 88
-12 19 -77 43 -115 43 -19 0 -60 -9 -92 -20 -32 -11 -62 -20 -67 -20 -20 0 12
392 39 497 l17 63 -28 28 c-40 43 -124 82 -174 82 -30 0 -42 -4 -42 -15z"/>
<path d="M1910 1839 c-126 -24 -740 -113 -840 -121 -27 -2 -36 -8 -38 -25 -3
-17 6 -27 35 -42 63 -32 117 -35 228 -12 55 11 129 25 165 31 36 6 75 13 88
15 21 5 22 2 22 -53 0 -114 -79 -279 -224 -472 -129 -172 -274 -330 -389 -425
-135 -111 -127 -135 21 -64 141 68 341 242 480 417 44 56 69 79 76 72 14 -14
12 -346 -2 -492 -7 -65 -19 -148 -28 -185 -21 -91 -15 -164 22 -237 37 -76 55
-88 87 -58 46 43 51 85 49 387 -1 154 2 327 6 384 l7 103 60 -45 c33 -25 134
-110 225 -188 178 -153 242 -199 275 -199 35 0 58 34 58 84 -2 105 -81 196
-234 269 -99 48 -269 110 -330 121 -31 6 -39 12 -53 49 -9 24 -32 59 -51 77
-19 19 -35 37 -35 41 0 7 44 79 142 235 21 33 38 68 38 78 0 9 -21 39 -46 66
l-46 49 34 5 c60 10 395 36 465 36 120 0 125 52 11 111 -49 25 -100 23 -278
-12z"/>
</g>
</svg>
